# xmcd
#
# Track frame offsets:
#	150
#	26025
#	40725
#	57503
#	73970
#	90119
#	113866
#	133875
#	149137
#
# Disc length: 2202 seconds
# Revision: 0
# Processed by: cddbd v1.5.2PL0 Copyright (c) Steve Scherf et al.
# Submitted via: dBpowerAMP V12.0
#
DISCID=88089809
DTITLE=C.C. Catch - Like a Hurricane
DYEAR=1987
DGENRE=Eurodisco
TTITLE0=Good Guys only win in Movies (Extended Version)
TTITLE1=Like a Hurricane
TTITLE2=Smokey Joe's Café
TTITLE3=Are you man enough
TTITLE4=Don't be a hero
TTITLE5=Soul Survivor (Long Version Survivor Mix)
TTITLE6=Midnight Gambler (Long Version)
TTITLE7=Don't wait too long
TTITLE8=Dancing in Shadows
EXTD=
EXTT0=
EXTT1=
EXTT2=
EXTT3=
EXTT4=
EXTT5=
EXTT6=
EXTT7=
EXTT8=
PLAYORDER=
